<svg width="35" height="35" viewBox="0 0 35 35" fill="none" xmlns="http://www.w3.org/2000/svg">
<path d="M6.5625 9.47917V9.47917C6.5625 7.86834 7.86834 6.5625 9.47917 6.5625L26.1458 6.5625C26.4574 6.5625 26.6131 6.5625 26.7292 6.62949C26.8052 6.67337 26.8683 6.73649 26.9122 6.8125C26.9792 6.92852 26.9792 7.08429 26.9792 7.39583V7.39583C26.9792 9.26506 26.9792 10.1997 26.5772 10.8958C26.3139 11.3519 25.9352 11.7306 25.4792 11.9939C24.783 12.3958 23.8484 12.3958 21.9792 12.3958H21.875M6.5625 9.47917V9.47917C6.5625 11.09 7.86834 12.3958 9.47917 12.3958L26.4375 12.3958C27.3803 12.3958 27.8517 12.3958 28.1446 12.6887C28.4375 12.9816 28.4375 13.453 28.4375 14.3958L28.4375 18.2292M6.5625 9.47917L6.5625 24.4375C6.5625 26.3231 6.5625 27.2659 7.14829 27.8517C7.73407 28.4375 8.67688 28.4375 10.5625 28.4375L26.4375 28.4375C27.3803 28.4375 27.8517 28.4375 28.1446 28.1446C28.4375 27.8517 28.4375 27.3803 28.4375 26.4375V24.0625M28.4375 24.0625H24.6042C23.6614 24.0625 23.19 24.0625 22.8971 23.7696C22.6042 23.4767 22.6042 23.0053 22.6042 22.0625V20.2292C22.6042 19.2864 22.6042 18.815 22.8971 18.5221C23.19 18.2292 23.6614 18.2292 24.6042 18.2292H28.4375M28.4375 24.0625V18.2292" stroke="#222222"/>
</svg>
